
<svg
  version="1.0"
  xmlns="http://www.w3.org/2000/svg"
  xmlns:xlink="http://www.w3.org/1999/xlink"
  width="2400"
  height="1800"
>
  
  <rect
    x="0"
    y="0"
    width="100%"
    height="100%"
    fill="#444"
    fill-opacity="1"
  ></rect>
  <svg
    version="1.0"
    xmlns="http://www.w3.org/2000/svg"
    xmlns:xlink="http://www.w3.org/1999/xlink"
    x="0"
    y="0"
    width="2400"
    height="1800"
    viewBox="0 0 340.000000 250.000000"
    preserveAspectRatio="xMidYMid meet"
    color-interpolation-filters="sRGB"
  >
    <defs><linearGradient id="92" x1="0%" y1="0%" x2="100%" y2="0%"><stop offset="0%" stop-color="#fa71cd"/> <stop offset="100%" stop-color="#9b59b6"/></linearGradient><linearGradient id="93" x1="0%" y1="0%" x2="100%" y2="0%"><stop offset="0%" stop-color="#f9d423"/> <stop offset="100%" stop-color="#f83600"/></linearGradient><linearGradient id="94" x1="0%" y1="0%" x2="100%" y2="0%"><stop offset="0%" stop-color="#0064d2"/> <stop offset="100%" stop-color="#1cb0f6"/></linearGradient><linearGradient id="95" x1="0%" y1="0%" x2="100%" y2="0%"><stop offset="0%" stop-color="#f00978"/> <stop offset="100%" stop-color="#3f51b1"/></linearGradient><linearGradient id="96" x1="0%" y1="0%" x2="100%" y2="0%"><stop offset="0%" stop-color="#7873f5"/> <stop offset="100%" stop-color="#ec77ab"/></linearGradient><linearGradient id="97" x1="0%" y1="0%" x2="100%" y2="0%"><stop offset="0%" stop-color="#f9d423"/> <stop offset="100%" stop-color="#e14fad"/></linearGradient><linearGradient id="98" x1="0%" y1="0%" x2="100%" y2="0%"><stop offset="0%" stop-color="#009efd"/> <stop offset="100%" stop-color="#2af598"/></linearGradient><linearGradient id="99" x1="0%" y1="0%" x2="100%" y2="0%"><stop offset="0%" stop-color="#ffcc00"/> <stop offset="100%" stop-color="#00b140"/></linearGradient><linearGradient id="100" x1="0%" y1="0%" x2="100%" y2="0%"><stop offset="0%" stop-color="#d51007"/> <stop offset="100%" stop-color="#ff8177"/></linearGradient><linearGradient id="102" x1="0%" y1="0%" x2="100%" y2="0%"><stop offset="0%" stop-color="#a2b6df"/> <stop offset="100%" stop-color="#0c3483"/></linearGradient><linearGradient id="103" x1="0%" y1="0%" x2="100%" y2="0%"><stop offset="0%" stop-color="#7ac5d8"/> <stop offset="100%" stop-color="#eea2a2"/></linearGradient><linearGradient id="104" x1="0%" y1="0%" x2="100%" y2="0%"><stop offset="0%" stop-color="#00ecbc"/> <stop offset="100%" stop-color="#007adf"/></linearGradient><linearGradient id="105" x1="0%" y1="0%" x2="100%" y2="0%"><stop offset="0%" stop-color="#b88746"/> <stop offset="100%" stop-color="#fdf5a6"/></linearGradient></defs> <g fill="#fff" class="icon-text-wrapper icon-svg-group iconsvg" transform="translate(53.933837890625,104.00818634033203)"><g class="iconsvg-imagesvg" transform="translate(0,0)"><g><rect fill="#fff" fill-opacity="0" stroke-width="2" x="0" y="0" width="41.99999999999998" height="41.983626385709556" class="image-rect"/> <svg filter="url(#colors8711110860)" x="0" y="0" width="41.99999999999998" height="41.983626385709556" filtersec="colorsf6926999700" class="image-svg-svg primary" style="overflow: visible;"><svg xmlns="http://www.w3.org/2000/svg" xmlns:xlink="http://www.w3.org/1999/xlink" version="1.1" x="0px" y="0px" viewBox="10.17199993133545 10 80.03099822998047 80" xml:space="preserve"><path d="M89.203,49h-5.921C82.76,31.534,68.655,17.429,51.188,16.907V11c0-0.552-0.447-1-1-1s-1,0.448-1,1v5.906  C31.721,17.429,17.616,31.534,17.094,49h-5.922c-0.553,0-1,0.448-1,1s0.447,1,1,1h5.922c0.522,17.467,14.627,31.572,32.094,32.094  V89c0,0.552,0.447,1,1,1s1-0.448,1-1v-5.906C68.655,82.573,82.76,68.468,83.282,51h5.921c0.553,0,1-0.448,1-1S89.756,49,89.203,49z   M81.282,49H66.665c-0.501-8.314-7.163-14.976-15.478-15.477V18.907C67.553,19.427,80.762,32.636,81.282,49z M49.188,49H35.711  c0.495-7.212,6.264-12.982,13.477-13.477V49z M49.188,51v13.478C41.975,63.983,36.206,58.213,35.711,51H49.188z M51.188,51h13.478  C64.17,58.213,58.4,63.983,51.188,64.478V51z M51.188,49V35.523C58.4,36.018,64.17,41.788,64.665,49H51.188z M49.188,18.907v14.617  C40.873,34.025,34.212,40.686,33.711,49H19.094C19.614,32.636,32.823,19.427,49.188,18.907z M19.094,51h14.617  c0.501,8.315,7.162,14.976,15.477,15.478v14.617C32.823,80.574,19.614,67.365,19.094,51z M51.188,81.095V66.478  C59.502,65.977,66.164,59.315,66.665,51h14.617C80.762,67.365,67.553,80.574,51.188,81.095z"/></svg></svg> <defs><filter id="colors8711110860"><feColorMatrix type="matrix" values="0 0 0 0 0.99609375  0 0 0 0 0.99609375  0 0 0 0 0.99609375  0 0 0 1 0" class="icon-feColorMatrix "/></filter> <filter id="colorsf6926999700"><feColorMatrix type="matrix" values="0 0 0 0 0.99609375  0 0 0 0 0.99609375  0 0 0 0 0.99609375  0 0 0 1 0" class="icon-fecolormatrix"/></filter> <filter id="colorsb1509734731"><feColorMatrix type="matrix" values="0 0 0 0 0  0 0 0 0 0  0 0 0 0 0  0 0 0 1 0" class="icon-fecolormatrix"/></filter></defs></g></g> <g transform="translate(49,4.862751007080078)"><g fill-rule="" class="tp-name iconsvg-namesvg" transform="translate(0,0)"><g transform="scale(1)"><g><path d="M17-15.68L1.32-15.68 1.32 0 5.01 0 5.01-5.99 17-5.99 17-9.68 5.01-9.68 5.01-11.99 17-11.99 17-15.68ZM22.41 0L32.55 0Q33.7 0 34.51-0.82L34.51-0.82Q35.32-1.62 35.32-2.76L35.32-2.76 35.32-15.68 31.63-15.68 31.63-3.69 23.33-3.69 23.33-15.68 19.64-15.68 19.64-2.76Q19.64-1.62 20.46-0.82L20.46-0.82Q21.26 0 22.41 0L22.41 0ZM41.65-15.68L37.96-15.68 37.96 0 52.26 0 52.26-3.69 41.65-3.69 41.65-15.68ZM58.59-15.68L54.9-15.68 54.9 0 69.2 0 69.2-3.69 58.59-3.69 58.59-15.68ZM71.85-9.66L71.85-5.97 87.52-5.97 87.52-9.66 71.85-9.66ZM106.3-2.76L106.3-7.39Q106.3-8.21 105.8-8.83L105.8-8.83Q105.3-9.46 104.5-9.64L104.5-9.64 104.3-9.68 93.86-9.69 93.86-11.99 102.61-11.99 102.61-10.61 106.3-10.61 106.3-12.91Q106.3-14.06 105.5-14.87L105.5-14.87Q104.68-15.68 103.54-15.68L103.54-15.68 92.93-15.68Q91.78-15.68 90.98-14.87L90.98-14.87Q90.17-14.06 90.17-12.91L90.17-12.91 90.17-8.31Q90.17-7.48 90.67-6.85L90.67-6.85Q91.18-6.22 91.97-6.05L91.97-6.05 92.17-6 102.61-5.99 102.61-3.69 93.86-3.69 93.86-5.08 90.17-5.08 90.17-2.76Q90.17-1.62 90.98-0.82L90.98-0.82Q91.78 0 92.93 0L92.93 0 103.54 0Q104.68 0 105.5-0.82L105.5-0.82Q106.3-1.62 106.3-2.76L106.3-2.76ZM124.62-15.68L108.95-15.68 108.95-11.99 114.94-11.99 114.94 0 118.63 0 118.63-11.99 124.62-11.99 124.62-15.68ZM133.35-15.68L129.08-15.68 121.76 0 125.79 0 131.22-11.35 136.85 0 140.88 0 133.35-15.68ZM146.29 0L156.9 0Q158.05 0 158.86-0.82L158.86-0.82Q159.66-1.62 159.66-2.76L159.66-2.76 159.66-5.08 155.97-5.08 155.97-3.69 147.22-3.69 147.22-11.99 155.97-11.99 155.97-10.61 159.66-10.61 159.66-12.91Q159.66-14.06 158.86-14.87L158.86-14.87Q158.05-15.68 156.9-15.68L156.9-15.68 146.29-15.68Q145.15-15.68 144.34-14.87L144.34-14.87Q143.53-14.06 143.53-12.91L143.53-12.91 143.53-2.76Q143.53-1.62 144.34-0.82L144.34-0.82Q145.15 0 146.29 0L146.29 0ZM178.68-15.68L173.03-15.68 166-9.63 166-15.68 162.31-15.68 162.31 0 166 0 166-4.75 168.54-6.95 173.89 0 178.55 0 171.34-9.36 178.68-15.68Z" transform="translate(-1.3200000524520874, 15.680000305175781)"/></g> </g></g> <g fill-rule="" class="tp-slogan iconsvg-slogansvg" fill="#fff" transform="translate(-5.7700042724609375,21.68000030517578)"><rect width="0"/> <rect x="191.89999389648438" width="0"/> <g transform="translate(0,0)"><g transform="scale(1)"><path d="M4.38-8.16L4.34-7.07L4.21-7.07Q4.17-7.20 4.06-7.37Q3.96-7.54 3.79-7.69Q3.63-7.84 3.39-7.94Q3.15-8.04 2.83-8.04L2.83-8.04Q2.54-8.04 2.32-7.95Q2.10-7.86 1.95-7.71Q1.80-7.55 1.72-7.33Q1.65-7.11 1.65-6.85L1.65-6.85Q1.65-6.43 1.88-6.04Q2.12-5.66 2.48-5.29Q2.84-4.91 3.25-4.54Q3.67-4.16 4.03-3.76Q4.38-3.35 4.62-2.91Q4.86-2.47 4.86-1.96L4.86-1.96Q4.86-1.58 4.73-1.19Q4.59-0.81 4.32-0.50Q4.04-0.20 3.61-0.01Q3.18 0.18 2.58 0.18L2.58 0.18Q2.24 0.18 1.94 0.12Q1.64 0.06 1.39-0.03Q1.13-0.12 0.93-0.23Q0.73-0.33 0.60-0.42L0.60-0.42L0.73-1.72L0.88-1.72Q0.94-1.44 1.09-1.19Q1.24-0.94 1.45-0.75Q1.66-0.56 1.94-0.45Q2.21-0.33 2.54-0.33L2.54-0.33Q2.84-0.33 3.08-0.42Q3.32-0.52 3.49-0.68Q3.66-0.84 3.75-1.06Q3.84-1.28 3.84-1.55L3.84-1.55Q3.84-1.92 3.70-2.23Q3.57-2.54 3.35-2.82Q3.13-3.11 2.85-3.37Q2.57-3.63 2.28-3.90Q1.99-4.17 1.71-4.45Q1.43-4.73 1.21-5.05Q0.99-5.37 0.86-5.73Q0.72-6.10 0.72-6.54L0.72-6.54Q0.72-7.00 0.90-7.37Q1.08-7.75 1.37-8.01Q1.67-8.27 2.04-8.41Q2.42-8.55 2.82-8.55L2.82-8.55Q3.11-8.55 3.36-8.51Q3.60-8.46 3.80-8.40Q4.00-8.33 4.14-8.27Q4.29-8.20 4.38-8.16L4.38-8.16ZM10.13-8.54L10.13-8.54Q11.11-8.54 11.94-8.22Q12.77-7.90 13.37-7.33Q13.97-6.75 14.31-5.94Q14.65-5.13 14.65-4.15L14.65-4.15Q14.65-3.60 14.53-3.06Q14.40-2.52 14.15-2.04Q13.90-1.56 13.54-1.15Q13.17-0.74 12.71-0.45Q12.24-0.15 11.68 0.01Q11.12 0.18 10.46 0.18L10.46 0.18Q9.49 0.18 8.66-0.13Q7.83-0.45 7.22-1.02Q6.62-1.59 6.28-2.40Q5.94-3.21 5.94-4.19L5.94-4.19Q5.94-4.75 6.07-5.29Q6.20-5.82 6.45-6.31Q6.70-6.80 7.06-7.20Q7.42-7.61 7.88-7.91Q8.35-8.21 8.92-8.38Q9.48-8.54 10.13-8.54ZM10.46-0.35L10.46-0.35Q11.12-0.35 11.65-0.58Q12.19-0.81 12.58-1.26Q12.97-1.71 13.19-2.35Q13.41-2.99 13.41-3.80L13.41-3.80Q13.41-4.71 13.20-5.48Q12.99-6.25 12.58-6.81Q12.17-7.38 11.56-7.70Q10.95-8.02 10.13-8.02L10.13-8.02Q9.48-8.02 8.94-7.78Q8.40-7.55 8.01-7.11Q7.62-6.67 7.41-6.04Q7.19-5.40 7.19-4.58L7.19-4.58Q7.19-3.69 7.39-2.91Q7.60-2.13 8.01-1.56Q8.42-1.00 9.04-0.67Q9.65-0.35 10.46-0.35ZM17.21-4.43L17.21-2.29Q17.21-1.79 17.22-1.42Q17.24-1.05 17.26-0.78Q17.28-0.51 17.31-0.33Q17.34-0.15 17.38-0.02L17.38-0.02L17.38 0L15.97 0L15.97-0.02Q16.01-0.15 16.04-0.33Q16.07-0.51 16.10-0.78Q16.12-1.05 16.13-1.42Q16.14-1.79 16.14-2.29L16.14-2.29L16.14-6.11Q16.14-6.60 16.13-6.98Q16.12-7.35 16.10-7.62Q16.07-7.89 16.04-8.07Q16.01-8.26 15.97-8.38L15.97-8.38L15.97-8.40Q16.46-8.40 16.96-8.41Q17.46-8.41 17.92-8.41Q18.39-8.41 18.81-8.42Q19.24-8.43 19.58-8.44Q19.92-8.45 20.15-8.46Q20.38-8.48 20.48-8.50L20.48-8.50L20.20-7.72Q20.00-7.77 19.75-7.81L19.75-7.81Q19.52-7.85 19.20-7.88Q18.88-7.91 18.47-7.91L18.47-7.91Q18.33-7.91 18.12-7.90Q17.91-7.89 17.70-7.88L17.70-7.88Q17.47-7.87 17.21-7.86L17.21-7.86L17.21-4.90Q17.81-4.90 18.32-4.93Q18.82-4.96 19.18-4.99L19.18-4.99Q19.61-5.03 19.95-5.07L19.95-5.07L19.77-4.22Q19.33-4.28 18.88-4.32L18.88-4.32Q18.49-4.37 18.05-4.40Q17.60-4.43 17.21-4.43L17.21-4.43ZM23.77-2.29L23.77-7.89Q23.08-7.89 22.52-7.83Q21.97-7.76 21.56-7.69L21.56-7.69Q21.09-7.61 20.72-7.50L20.72-7.50L20.89-8.45Q20.96-8.44 21.11-8.44Q21.25-8.43 21.42-8.43Q21.59-8.42 21.78-8.42Q21.97-8.41 22.14-8.41Q22.31-8.41 22.44-8.41Q22.58-8.40 22.63-8.40L22.63-8.40L25.98-8.40Q26.04-8.40 26.17-8.41Q26.30-8.41 26.47-8.41Q26.64-8.41 26.83-8.42Q27.02-8.42 27.20-8.43Q27.37-8.43 27.51-8.44Q27.65-8.44 27.72-8.45L27.72-8.45L27.89-7.50Q27.52-7.61 27.05-7.69L27.05-7.69Q26.64-7.76 26.09-7.83Q25.53-7.89 24.84-7.89L24.84-7.89L24.84-2.29Q24.84-1.79 24.85-1.42Q24.87-1.05 24.89-0.78Q24.91-0.51 24.94-0.33Q24.97-0.15 25.01-0.02L25.01-0.02L25.01 0L23.61 0L23.61-0.02Q23.64-0.15 23.67-0.33Q23.70-0.51 23.72-0.78Q23.75-1.05 23.76-1.42Q23.77-1.79 23.77-2.29L23.77-2.29ZM33.84-7.27L34.21-7.29L36.56-1.61L38.84-7.19Q38.97-7.54 39.04-7.78Q39.10-8.02 39.10-8.19L39.10-8.19Q39.10-8.24 39.09-8.29Q39.09-8.35 39.08-8.38L39.08-8.38L39.08-8.40L40.24-8.40L40.24-8.38Q40.12-8.25 39.98-7.97Q39.84-7.69 39.66-7.27L39.66-7.27L36.53 0.18L36.09 0.18L33.81-5.35L31.73 0.18L31.29 0.18L28.42-6.98Q28.31-7.24 28.20-7.47Q28.10-7.71 28.00-7.89Q27.90-8.08 27.82-8.21Q27.74-8.34 27.71-8.38L27.71-8.38L27.71-8.40L29.33-8.40L29.33-8.38Q29.32-8.31 29.32-8.28Q29.32-8.24 29.32-8.20L29.32-8.20Q29.32-8.00 29.36-7.78Q29.41-7.55 29.54-7.24L29.54-7.24L31.74-1.67L33.84-7.27ZM48.14 0L46.54 0L46.54-0.02Q46.55-0.05 46.55-0.11Q46.56-0.17 46.56-0.22L46.56-0.22Q46.56-0.40 46.51-0.62Q46.46-0.84 46.32-1.17L46.32-1.17L45.61-2.76Q45.28-2.77 44.74-2.77Q44.19-2.77 43.56-2.77L43.56-2.77Q43.10-2.77 42.67-2.77Q42.23-2.77 41.89-2.76L41.89-2.76L41.21-1.21Q41.13-1.00 41.03-0.74Q40.93-0.48 40.93-0.22L40.93-0.22Q40.93-0.14 40.94-0.09Q40.95-0.04 40.96-0.02L40.96-0.02L40.96 0L39.77 0L39.77-0.02Q39.87-0.13 40.03-0.42Q40.19-0.70 40.38-1.13L40.38-1.13L43.73-8.58L44.20-8.58L47.38-1.42Q47.50-1.17 47.62-0.93Q47.74-0.69 47.84-0.50Q47.95-0.32 48.03-0.19Q48.11-0.06 48.14-0.02L48.14-0.02L48.14 0ZM42.11-3.28L42.74-3.28Q43.08-3.28 43.44-3.28Q43.79-3.28 44.14-3.28Q44.48-3.29 44.79-3.29Q45.11-3.29 45.37-3.30L45.37-3.30L43.72-7.02L42.11-3.28ZM50.10-3.61L50.10-2.29Q50.10-1.79 50.11-1.42Q50.13-1.05 50.15-0.78Q50.17-0.51 50.20-0.33Q50.23-0.15 50.27-0.02L50.27-0.02L50.27 0L48.86 0L48.86-0.02Q48.90-0.15 48.93-0.33Q48.96-0.51 48.98-0.78Q49.01-1.05 49.02-1.42Q49.03-1.79 49.03-2.29L49.03-2.29L49.03-6.11Q49.03-6.60 49.02-6.98Q49.01-7.35 48.98-7.62Q48.96-7.89 48.93-8.07Q48.90-8.26 48.86-8.38L48.86-8.38L48.86-8.40Q48.98-8.39 49.11-8.38L49.11-8.38Q49.22-8.37 49.36-8.36Q49.49-8.36 49.64-8.36L49.64-8.36Q49.87-8.36 50.26-8.42Q50.65-8.47 51.25-8.47L51.25-8.47Q51.81-8.47 52.29-8.32Q52.77-8.17 53.12-7.88Q53.47-7.58 53.67-7.16Q53.87-6.73 53.87-6.19L53.87-6.19Q53.87-5.77 53.76-5.41Q53.65-5.05 53.45-4.76Q53.26-4.46 52.98-4.24Q52.71-4.01 52.37-3.86L52.37-3.86L54.42-0.97Q54.57-0.76 54.71-0.60Q54.84-0.44 54.96-0.33Q55.08-0.22 55.19-0.14Q55.30-0.07 55.42-0.02L55.42-0.02L55.42 0L53.72 0Q53.71-0.11 53.61-0.30Q53.51-0.48 53.38-0.66L53.38-0.66L51.31-3.59Q51.02-3.56 50.72-3.56Q50.41-3.56 50.10-3.61L50.10-3.61ZM50.10-7.95L50.10-4.07Q50.67-3.96 51.15-4.04Q51.63-4.11 51.97-4.37Q52.31-4.63 52.50-5.07Q52.69-5.51 52.69-6.15L52.69-6.15Q52.69-6.59 52.59-6.94Q52.49-7.30 52.30-7.55Q52.10-7.80 51.80-7.94Q51.50-8.07 51.11-8.07L51.11-8.07Q50.85-8.07 50.67-8.05Q50.48-8.03 50.35-8.01L50.35-8.01Q50.20-7.98 50.10-7.95L50.10-7.95ZM55.95-8.40L55.95-8.40Q56.68-8.40 57.41-8.41Q58.13-8.41 58.73-8.42Q59.34-8.43 59.77-8.45Q60.19-8.47 60.35-8.50L60.35-8.50L60.06-7.72Q59.87-7.77 59.61-7.81L59.61-7.81Q59.38-7.85 59.07-7.88Q58.75-7.91 58.33-7.91L58.33-7.91Q58.19-7.91 57.99-7.90Q57.80-7.89 57.62-7.88L57.62-7.88Q57.40-7.87 57.19-7.86L57.19-7.86L57.19-4.66Q57.79-4.66 58.28-4.69Q58.76-4.72 59.10-4.75L59.10-4.75Q59.50-4.79 59.81-4.83L59.81-4.83L59.63-3.98Q59.22-4.04 58.80-4.08L58.80-4.08Q58.44-4.13 58.01-4.16Q57.58-4.19 57.19-4.19L57.19-4.19L57.19-0.52Q57.88-0.52 58.46-0.57Q59.04-0.63 59.47-0.71L59.47-0.71Q59.98-0.79 60.39-0.90L60.39-0.90L60.22 0.05Q60.15 0.04 60.01 0.04Q59.87 0.03 59.70 0.02Q59.53 0.02 59.33 0.01Q59.14 0.01 58.97 0.01Q58.80 0.01 58.67 0.00Q58.54 0 58.48 0L58.48 0L55.95 0L55.95-0.02Q55.99-0.15 56.02-0.33Q56.05-0.51 56.07-0.78Q56.10-1.05 56.11-1.42Q56.12-1.79 56.12-2.29L56.12-2.29L56.12-6.11Q56.12-6.60 56.11-6.98Q56.10-7.35 56.07-7.62Q56.05-7.89 56.02-8.07Q55.99-8.26 55.95-8.38L55.95-8.38L55.95-8.40ZM72.12-3.15L72.12-3.15Q71.90-1.98 71.19-1.18L71.19-1.18Q71.79-0.58 72.42-0.07Q73.04 0.43 73.65 0.81Q74.26 1.18 74.82 1.39Q75.38 1.61 75.85 1.61L75.85 1.61Q76.04 1.61 76.22 1.57L76.22 1.57L76.22 1.71Q76.15 1.73 76.04 1.79Q75.93 1.84 75.76 1.89Q75.59 1.93 75.37 1.97Q75.14 2.00 74.85 2.00L74.85 2.00Q74.40 2.00 73.87 1.81Q73.34 1.62 72.77 1.29Q72.20 0.95 71.62 0.49Q71.03 0.02 70.48-0.53L70.48-0.53Q69.97-0.18 69.35 0.01Q68.74 0.19 68.02 0.19L68.02 0.19Q67.36 0.19 66.83 0.03Q66.31-0.13 65.95-0.44Q65.58-0.74 65.39-1.18Q65.19-1.61 65.19-2.15L65.19-2.15Q65.19-2.67 65.38-3.07Q65.58-3.47 65.89-3.79Q66.21-4.11 66.61-4.38Q67.01-4.64 67.44-4.89L67.44-4.89Q67.27-5.33 67.17-5.74Q67.08-6.16 67.08-6.54L67.08-6.54Q67.08-7.00 67.23-7.37Q67.38-7.75 67.63-8.00Q67.89-8.26 68.24-8.40Q68.59-8.54 68.99-8.54L68.99-8.54Q69.28-8.54 69.54-8.46Q69.80-8.38 69.99-8.22Q70.18-8.06 70.29-7.82Q70.40-7.58 70.40-7.26L70.40-7.26Q70.40-6.86 70.23-6.54Q70.07-6.23 69.79-5.96Q69.52-5.70 69.17-5.47Q68.82-5.24 68.44-5.03L68.44-5.03Q68.63-4.59 68.89-4.14Q69.15-3.69 69.46-3.24Q69.77-2.79 70.13-2.36Q70.49-1.92 70.87-1.51L70.87-1.51Q71.15-1.89 71.31-2.38Q71.47-2.87 71.47-3.45L71.47-3.45Q71.47-3.94 71.42-4.27Q71.36-4.60 71.30-4.83L71.30-4.83L71.30-4.86L72.36-4.86L72.36-4.83Q72.32-4.69 72.30-4.52Q72.28-4.35 72.25-4.14Q72.23-3.93 72.20-3.68Q72.17-3.43 72.12-3.15ZM68.46-0.33L68.46-0.33Q68.94-0.33 69.37-0.46Q69.81-0.59 70.17-0.84L70.17-0.84Q69.77-1.26 69.40-1.71Q69.02-2.16 68.70-2.62Q68.37-3.09 68.09-3.56Q67.81-4.03 67.61-4.49L67.61-4.49Q67.33-4.30 67.09-4.10Q66.86-3.89 66.68-3.64Q66.50-3.40 66.40-3.11Q66.30-2.82 66.30-2.47L66.30-2.47Q66.30-2.02 66.46-1.62Q66.62-1.23 66.91-0.94Q67.20-0.66 67.59-0.50Q67.99-0.33 68.46-0.33ZM68.02-6.85L68.02-6.85Q68.02-6.51 68.09-6.15Q68.17-5.79 68.30-5.40L68.30-5.40Q68.59-5.58 68.84-5.78Q69.09-5.97 69.27-6.20Q69.46-6.42 69.56-6.68Q69.67-6.94 69.67-7.25L69.67-7.25Q69.67-7.42 69.62-7.58Q69.58-7.73 69.49-7.85Q69.40-7.97 69.27-8.04Q69.13-8.11 68.95-8.11L68.95-8.11Q68.48-8.11 68.25-7.78Q68.02-7.44 68.02-6.85ZM83.37-7.27L83.74-7.29L86.09-1.61L88.37-7.19Q88.50-7.54 88.56-7.78Q88.63-8.02 88.63-8.19L88.63-8.19Q88.63-8.24 88.62-8.29Q88.62-8.35 88.61-8.38L88.61-8.38L88.61-8.40L89.77-8.40L89.77-8.38Q89.65-8.25 89.51-7.97Q89.37-7.69 89.19-7.27L89.19-7.27L86.06 0.18L85.62 0.18L83.34-5.35L81.26 0.18L80.82 0.18L77.95-6.98Q77.84-7.24 77.73-7.47Q77.63-7.71 77.53-7.89Q77.43-8.08 77.35-8.21Q77.27-8.34 77.24-8.38L77.24-8.38L77.24-8.40L78.86-8.40L78.86-8.38Q78.85-8.31 78.85-8.28Q78.85-8.24 78.85-8.20L78.85-8.20Q78.85-8.00 78.89-7.78Q78.94-7.55 79.07-7.24L79.07-7.24L81.27-1.67L83.37-7.27ZM90.43-8.40L90.43-8.40Q91.16-8.40 91.88-8.41Q92.61-8.41 93.21-8.42Q93.81-8.43 94.24-8.45Q94.67-8.47 94.82-8.50L94.82-8.50L94.54-7.72Q94.34-7.77 94.08-7.81L94.08-7.81Q93.86-7.85 93.54-7.88Q93.22-7.91 92.81-7.91L92.81-7.91Q92.67-7.91 92.47-7.90Q92.27-7.89 92.09-7.88L92.09-7.88Q91.88-7.87 91.66-7.86L91.66-7.86L91.66-4.66Q92.27-4.66 92.75-4.69Q93.24-4.72 93.58-4.75L93.58-4.75Q93.98-4.79 94.28-4.83L94.28-4.83L94.10-3.98Q93.70-4.04 93.28-4.08L93.28-4.08Q92.91-4.13 92.48-4.16Q92.06-4.19 91.66-4.19L91.66-4.19L91.66-0.52Q92.36-0.52 92.94-0.57Q93.52-0.63 93.95-0.71L93.95-0.71Q94.45-0.79 94.87-0.90L94.87-0.90L94.70 0.05Q94.63 0.04 94.49 0.04Q94.35 0.03 94.17 0.02Q94.00 0.02 93.81 0.01Q93.62 0.01 93.45 0.01Q93.28 0.01 93.15 0.00Q93.02 0 92.96 0L92.96 0L90.43 0L90.43-0.02Q90.46-0.15 90.50-0.33Q90.53-0.51 90.55-0.78Q90.57-1.05 90.59-1.42Q90.60-1.79 90.60-2.29L90.60-2.29L90.60-6.11Q90.60-6.60 90.59-6.98Q90.57-7.35 90.55-7.62Q90.53-7.89 90.50-8.07Q90.46-8.26 90.43-8.38L90.43-8.38L90.43-8.40ZM96.48-2.29L96.48-6.11Q96.48-6.60 96.47-6.98Q96.46-7.35 96.43-7.62Q96.41-7.89 96.38-8.07Q96.35-8.26 96.31-8.38L96.31-8.38L96.31-8.40Q96.43-8.40 96.56-8.40L96.56-8.40Q96.67-8.39 96.81-8.39Q96.94-8.39 97.09-8.39L97.09-8.39Q97.30-8.39 97.66-8.43Q98.02-8.47 98.59-8.47L98.59-8.47Q99.12-8.47 99.56-8.33Q100.01-8.20 100.33-7.94Q100.66-7.68 100.84-7.30Q101.03-6.93 101.03-6.45L101.03-6.45Q101.03-6.04 100.92-5.72Q100.80-5.40 100.60-5.17Q100.40-4.93 100.12-4.77Q99.83-4.61 99.49-4.51L99.49-4.51Q99.99-4.44 100.40-4.26Q100.81-4.08 101.11-3.81Q101.40-3.54 101.56-3.18Q101.72-2.82 101.72-2.38L101.72-2.38Q101.72-1.14 100.91-0.52Q100.10 0.09 98.47 0.09L98.47 0.09Q98.30 0.09 98.06 0.08Q97.83 0.06 97.58 0.05Q97.34 0.03 97.11 0.01Q96.87 0 96.70 0L96.70 0L96.31 0L96.31-0.02Q96.35-0.15 96.38-0.33Q96.41-0.51 96.43-0.78Q96.46-1.05 96.47-1.42Q96.48-1.79 96.48-2.29L96.48-2.29ZM98.63-4.15L98.63-4.15Q98.23-4.15 97.96-4.13Q97.69-4.10 97.55-4.07L97.55-4.07L97.55-2.29Q97.55-1.61 97.57-1.16Q97.59-0.71 97.63-0.43L97.63-0.43Q97.86-0.40 98.08-0.38Q98.30-0.36 98.44-0.36L98.44-0.36Q99.53-0.36 100.04-0.85Q100.55-1.34 100.55-2.35L100.55-2.35Q100.55-2.75 100.43-3.08Q100.31-3.41 100.07-3.65Q99.83-3.89 99.47-4.02Q99.11-4.15 98.63-4.15ZM97.55-7.96L97.55-4.59Q97.71-4.58 97.84-4.57Q97.97-4.57 98.12-4.57L98.12-4.57Q98.51-4.57 98.84-4.68Q99.17-4.80 99.40-5.03Q99.63-5.26 99.76-5.60Q99.89-5.94 99.89-6.40L99.89-6.40Q99.89-6.78 99.80-7.09Q99.70-7.40 99.52-7.62Q99.33-7.84 99.06-7.96Q98.79-8.07 98.45-8.07L98.45-8.07Q98.23-8.07 98.06-8.06Q97.89-8.04 97.78-8.02L97.78-8.02Q97.64-7.99 97.55-7.96L97.55-7.96ZM107.92-7.90L107.92-7.90Q107.91-7.24 107.90-6.63L107.90-6.63Q107.89-6.36 107.89-6.09Q107.89-5.81 107.89-5.55Q107.88-5.28 107.88-5.04Q107.88-4.79 107.88-4.61L107.88-4.61Q107.88-4.21 107.88-3.66Q107.89-3.10 107.90-2.51Q107.91-1.93 107.92-1.39Q107.94-0.85 107.96-0.49L107.96-0.49Q108.05-0.48 108.18-0.47Q108.32-0.45 108.47-0.44Q108.63-0.43 108.77-0.43Q108.92-0.42 109.02-0.42L109.02-0.42Q109.43-0.42 109.86-0.48Q110.29-0.53 110.69-0.69Q111.09-0.84 111.45-1.10Q111.80-1.37 112.07-1.79Q112.34-2.21 112.49-2.81Q112.64-3.40 112.64-4.21L112.64-4.21Q112.64-5.11 112.42-5.81Q112.21-6.51 111.79-6.99Q111.37-7.47 110.75-7.72Q110.13-7.97 109.33-7.97L109.33-7.97Q109.17-7.97 108.97-7.96Q108.77-7.95 108.58-7.94Q108.38-7.93 108.21-7.92Q108.04-7.90 107.92-7.90ZM106.64-8.40L106.64-8.43Q106.78-8.42 106.89-8.41L106.89-8.41Q106.99-8.41 107.10-8.41Q107.20-8.40 107.27-8.40L107.27-8.40Q107.38-8.40 107.64-8.41Q107.90-8.43 108.23-8.44Q108.57-8.45 108.93-8.46Q109.29-8.47 109.61-8.47L109.61-8.47Q110.46-8.47 111.22-8.26Q111.99-8.05 112.57-7.57Q113.15-7.09 113.49-6.31Q113.83-5.53 113.83-4.39L113.83-4.39Q113.83-3.58 113.65-2.93Q113.47-2.28 113.15-1.78Q112.83-1.28 112.38-0.93Q111.93-0.57 111.39-0.35Q110.85-0.12 110.23-0.01Q109.62 0.09 108.96 0.09L108.96 0.09Q108.73 0.09 108.40 0.08Q108.06 0.06 107.73 0.05Q107.40 0.03 107.10 0.01Q106.80 0 106.64 0L106.64 0L106.64-0.02Q106.68-0.15 106.71-0.33Q106.74-0.51 106.76-0.78Q106.79-1.05 106.80-1.42Q106.81-1.79 106.81-2.29L106.81-2.29L106.81-6.11Q106.81-6.60 106.80-6.98Q106.79-7.36 106.76-7.63Q106.74-7.90 106.71-8.09Q106.68-8.28 106.64-8.40L106.64-8.40ZM115.21-8.40L115.21-8.40Q115.94-8.40 116.66-8.41Q117.39-8.41 117.99-8.42Q118.59-8.43 119.02-8.45Q119.45-8.47 119.60-8.50L119.60-8.50L119.31-7.72Q119.12-7.77 118.86-7.81L118.86-7.81Q118.64-7.85 118.32-7.88Q118.00-7.91 117.59-7.91L117.59-7.91Q117.45-7.91 117.25-7.90Q117.05-7.89 116.87-7.88L116.87-7.88Q116.66-7.87 116.44-7.86L116.44-7.86L116.44-4.66Q117.05-4.66 117.53-4.69Q118.02-4.72 118.36-4.75L118.36-4.75Q118.76-4.79 119.06-4.83L119.06-4.83L118.88-3.98Q118.48-4.04 118.05-4.08L118.05-4.08Q117.69-4.13 117.26-4.16Q116.84-4.19 116.44-4.19L116.44-4.19L116.44-0.52Q117.13-0.52 117.71-0.57Q118.29-0.63 118.73-0.71L118.73-0.71Q119.23-0.79 119.65-0.90L119.65-0.90L119.48 0.05Q119.41 0.04 119.27 0.04Q119.13 0.03 118.95 0.02Q118.78 0.02 118.59 0.01Q118.40 0.01 118.23 0.01Q118.06 0.01 117.93 0.00Q117.80 0 117.74 0L117.74 0L115.21 0L115.21-0.02Q115.24-0.15 115.27-0.33Q115.31-0.51 115.33-0.78Q115.35-1.05 115.37-1.42Q115.38-1.79 115.38-2.29L115.38-2.29L115.38-6.11Q115.38-6.60 115.37-6.98Q115.35-7.35 115.33-7.62Q115.31-7.89 115.27-8.07Q115.24-8.26 115.21-8.38L115.21-8.38L115.21-8.40ZM120.01-8.40L121.62-8.40L121.62-8.38Q121.61-8.35 121.60-8.29Q121.59-8.23 121.59-8.19L121.59-8.19Q121.59-8.00 121.64-7.78Q121.69-7.56 121.83-7.24L121.83-7.24L124.43-1.38L126.94-7.19Q127.03-7.41 127.13-7.66Q127.22-7.92 127.22-8.19L127.22-8.19Q127.22-8.26 127.21-8.31Q127.20-8.36 127.19-8.38L127.19-8.38L127.19-8.40L128.39-8.40L128.39-8.38Q128.28-8.27 128.12-7.98Q127.96-7.69 127.78-7.27L127.78-7.27L124.42 0.18L123.95 0.18L120.77-6.98Q120.66-7.24 120.54-7.47Q120.42-7.71 120.31-7.90Q120.21-8.09 120.12-8.21Q120.04-8.34 120.01-8.38L120.01-8.38L120.01-8.40ZM128.99-8.40L128.99-8.40Q129.72-8.40 130.44-8.41Q131.17-8.41 131.77-8.42Q132.38-8.43 132.80-8.45Q133.23-8.47 133.38-8.50L133.38-8.50L133.10-7.72Q132.90-7.77 132.64-7.81L132.64-7.81Q132.42-7.85 132.10-7.88Q131.78-7.91 131.37-7.91L131.37-7.91Q131.23-7.91 131.03-7.90Q130.83-7.89 130.65-7.88L130.65-7.88Q130.44-7.87 130.22-7.86L130.22-7.86L130.22-4.66Q130.83-4.66 131.31-4.69Q131.80-4.72 132.14-4.75L132.14-4.75Q132.54-4.79 132.84-4.83L132.84-4.83L132.66-3.98Q132.26-4.04 131.84-4.08L131.84-4.08Q131.47-4.13 131.04-4.16Q130.62-4.19 130.22-4.19L130.22-4.19L130.22-0.52Q130.92-0.52 131.50-0.57Q132.08-0.63 132.51-0.71L132.51-0.71Q133.01-0.79 133.43-0.90L133.43-0.90L133.26 0.05Q133.19 0.04 133.05 0.04Q132.91 0.03 132.74 0.02Q132.56 0.02 132.37 0.01Q132.18 0.01 132.01 0.01Q131.84 0.01 131.71 0.00Q131.58 0 131.52 0L131.52 0L128.99 0L128.99-0.02Q129.02-0.15 129.06-0.33Q129.09-0.51 129.11-0.78Q129.13-1.05 129.15-1.42Q129.16-1.79 129.16-2.29L129.16-2.29L129.16-6.11Q129.16-6.60 129.15-6.98Q129.13-7.35 129.11-7.62Q129.09-7.89 129.06-8.07Q129.02-8.26 128.99-8.38L128.99-8.38L128.99-8.40ZM136.11-6.11L136.11-0.52Q136.80-0.52 137.38-0.57Q137.96-0.63 138.39-0.71L138.39-0.71Q138.90-0.79 139.31-0.90L139.31-0.90L139.14 0.05Q139.07 0.04 138.93 0.04Q138.79 0.03 138.62 0.02Q138.45 0.02 138.25 0.01Q138.06 0.01 137.89 0.01Q137.72 0.01 137.59 0.00Q137.46 0 137.40 0L137.40 0L134.87 0L134.87-0.02Q134.91-0.15 134.94-0.33Q134.97-0.51 134.99-0.78Q135.02-1.05 135.03-1.42Q135.04-1.79 135.04-2.29L135.04-2.29L135.04-6.11Q135.04-6.60 135.03-6.98Q135.02-7.35 134.99-7.62Q134.97-7.89 134.94-8.07Q134.91-8.26 134.87-8.38L134.87-8.38L134.87-8.40L136.28-8.40L136.28-8.38Q136.24-8.26 136.21-8.07Q136.18-7.89 136.16-7.62Q136.14-7.35 136.12-6.98Q136.11-6.60 136.11-6.11L136.11-6.11ZM144.22-8.54L144.22-8.54Q145.20-8.54 146.03-8.22Q146.86-7.90 147.46-7.33Q148.07-6.75 148.41-5.94Q148.75-5.13 148.75-4.15L148.75-4.15Q148.75-3.60 148.62-3.06Q148.49-2.52 148.24-2.04Q147.99-1.56 147.63-1.15Q147.26-0.74 146.80-0.45Q146.33-0.15 145.77 0.01Q145.21 0.18 144.56 0.18L144.56 0.18Q143.58 0.18 142.75-0.13Q141.92-0.45 141.32-1.02Q140.71-1.59 140.37-2.40Q140.03-3.21 140.03-4.19L140.03-4.19Q140.03-4.75 140.16-5.29Q140.29-5.82 140.54-6.31Q140.79-6.80 141.15-7.20Q141.51-7.61 141.98-7.91Q142.44-8.21 143.01-8.38Q143.57-8.54 144.22-8.54ZM144.56-0.35L144.56-0.35Q145.21-0.35 145.75-0.58Q146.29-0.81 146.67-1.26Q147.06-1.71 147.28-2.35Q147.50-2.99 147.50-3.80L147.50-3.80Q147.50-4.71 147.29-5.48Q147.08-6.25 146.67-6.81Q146.26-7.38 145.65-7.70Q145.04-8.02 144.22-8.02L144.22-8.02Q143.57-8.02 143.03-7.78Q142.49-7.55 142.10-7.11Q141.71-6.67 141.50-6.04Q141.28-5.40 141.28-4.58L141.28-4.58Q141.28-3.69 141.49-2.91Q141.69-2.13 142.10-1.56Q142.51-1.00 143.13-0.67Q143.74-0.35 144.56-0.35ZM151.30-7.95L151.30-3.72Q151.88-3.62 152.35-3.70Q152.83-3.79 153.17-4.06Q153.52-4.34 153.71-4.82Q153.90-5.29 153.90-5.98L153.90-5.98Q153.90-6.45 153.80-6.84Q153.70-7.23 153.50-7.50Q153.30-7.78 153.01-7.92Q152.71-8.07 152.31-8.07L152.31-8.07Q152.06-8.07 151.87-8.05Q151.68-8.03 151.55-8.01L151.55-8.01Q151.40-7.98 151.30-7.95L151.30-7.95ZM150.06-8.38L150.06-8.40Q150.18-8.39 150.31-8.38L150.31-8.38Q150.42-8.37 150.56-8.36Q150.70-8.36 150.84-8.36L150.84-8.36Q151.07-8.36 151.46-8.42Q151.85-8.47 152.46-8.47L152.46-8.47Q153.02-8.47 153.50-8.31Q153.97-8.14 154.32-7.83Q154.68-7.51 154.87-7.06Q155.07-6.60 155.07-6.02L155.07-6.02Q155.07-5.24 154.76-4.68Q154.45-4.11 153.93-3.76Q153.40-3.40 152.72-3.28Q152.04-3.15 151.30-3.26L151.30-3.26L151.30-2.29Q151.30-1.79 151.32-1.42Q151.33-1.05 151.35-0.78Q151.37-0.51 151.40-0.33Q151.44-0.15 151.47-0.02L151.47-0.02L151.47 0L150.06 0L150.06-0.02Q150.10-0.15 150.13-0.33Q150.16-0.51 150.19-0.78Q150.21-1.05 150.22-1.42Q150.23-1.79 150.23-2.29L150.23-2.29L150.23-6.11Q150.23-6.60 150.22-6.98Q150.21-7.35 150.19-7.62Q150.16-7.89 150.13-8.07Q150.10-8.26 150.06-8.38L150.06-8.38ZM155.79 0L155.79-0.02Q155.86-0.12 155.94-0.30Q156.02-0.49 156.07-0.77L156.07-0.77Q156.13-1.18 156.21-1.69Q156.29-2.20 156.38-2.77Q156.46-3.33 156.55-3.92Q156.63-4.51 156.71-5.08Q156.79-5.65 156.86-6.18Q156.94-6.71 157.00-7.15Q157.05-7.59 157.09-7.91Q157.13-8.24 157.15-8.40L157.15-8.40L157.89-8.40L161.58-1.51L165.23-8.40L165.79-8.40L166.75-1.44Q166.79-1.11 166.84-0.88Q166.89-0.64 166.93-0.48Q166.98-0.31 167.02-0.20Q167.07-0.09 167.11-0.02L167.11-0.02L167.11 0L165.63 0L165.63-0.02Q165.66-0.09 165.69-0.23Q165.71-0.38 165.71-0.59L165.71-0.59Q165.71-0.66 165.71-0.74Q165.70-0.82 165.69-0.91L165.69-0.91L164.95-6.53L161.49-0.02L161.09-0.07L157.61-6.59Q157.40-5.20 157.25-4.02L157.25-4.02Q157.18-3.52 157.12-3.01Q157.05-2.51 157.00-2.08Q156.96-1.65 156.93-1.32Q156.90-0.98 156.90-0.83L156.90-0.83Q156.90-0.63 156.91-0.47Q156.92-0.32 156.93-0.22L156.93-0.22Q156.95-0.09 156.97 0L156.97 0L155.79 0ZM168.43-8.40L168.43-8.40Q169.16-8.40 169.88-8.41Q170.61-8.41 171.21-8.42Q171.81-8.43 172.24-8.45Q172.67-8.47 172.82-8.50L172.82-8.50L172.54-7.72Q172.34-7.77 172.08-7.81L172.08-7.81Q171.86-7.85 171.54-7.88Q171.22-7.91 170.81-7.91L170.81-7.91Q170.67-7.91 170.47-7.90Q170.27-7.89 170.09-7.88L170.09-7.88Q169.88-7.87 169.66-7.86L169.66-7.86L169.66-4.66Q170.27-4.66 170.75-4.69Q171.24-4.72 171.58-4.75L171.58-4.75Q171.98-4.79 172.28-4.83L172.28-4.83L172.10-3.98Q171.70-4.04 171.28-4.08L171.28-4.08Q170.91-4.13 170.48-4.16Q170.06-4.19 169.66-4.19L169.66-4.19L169.66-0.52Q170.36-0.52 170.94-0.57Q171.52-0.63 171.95-0.71L171.95-0.71Q172.45-0.79 172.87-0.90L172.87-0.90L172.70 0.05Q172.63 0.04 172.49 0.04Q172.35 0.03 172.17 0.02Q172.00 0.02 171.81 0.01Q171.62 0.01 171.45 0.01Q171.28 0.01 171.15 0.00Q171.02 0 170.96 0L170.96 0L168.43 0L168.43-0.02Q168.46-0.15 168.50-0.33Q168.53-0.51 168.55-0.78Q168.57-1.05 168.59-1.42Q168.60-1.79 168.60-2.29L168.60-2.29L168.60-6.11Q168.60-6.60 168.59-6.98Q168.57-7.35 168.55-7.62Q168.53-7.89 168.50-8.07Q168.46-8.26 168.43-8.38L168.43-8.38L168.43-8.40ZM174.26-8.40L174.64-8.40L180.67-1.98L180.67-6.11Q180.67-6.60 180.66-6.98Q180.65-7.35 180.63-7.62Q180.60-7.89 180.57-8.07Q180.54-8.26 180.50-8.38L180.50-8.38L180.50-8.40L181.55-8.40L181.55-8.38Q181.51-8.26 181.48-8.07Q181.45-7.89 181.43-7.62Q181.41-7.35 181.39-6.98Q181.38-6.60 181.38-6.11L181.38-6.11L181.38 0.12L181.18 0.12L175.14-6.30L175.14-2.29Q175.14-1.79 175.15-1.42Q175.17-1.05 175.19-0.78Q175.21-0.51 175.24-0.33Q175.27-0.15 175.31-0.02L175.31-0.02L175.31 0L174.26 0L174.26-0.02Q174.30-0.15 174.33-0.33Q174.36-0.51 174.39-0.78Q174.41-1.05 174.42-1.42Q174.43-1.79 174.43-2.29L174.43-2.29L174.43-6.11Q174.43-6.60 174.42-6.98Q174.41-7.35 174.39-7.62Q174.36-7.89 174.33-8.07Q174.30-8.26 174.26-8.38L174.26-8.38L174.26-8.40ZM185.38-2.29L185.38-7.89Q184.69-7.89 184.14-7.83Q183.58-7.76 183.18-7.69L183.18-7.69Q182.71-7.61 182.34-7.50L182.34-7.50L182.51-8.45Q182.58-8.44 182.72-8.44Q182.86-8.43 183.03-8.43Q183.21-8.42 183.40-8.42Q183.59-8.41 183.76-8.41Q183.93-8.41 184.06-8.41Q184.19-8.40 184.25-8.40L184.25-8.40L187.59-8.40Q187.65-8.40 187.78-8.41Q187.92-8.41 188.09-8.41Q188.26-8.41 188.45-8.42Q188.64-8.42 188.81-8.43Q188.98-8.43 189.12-8.44Q189.26-8.44 189.33-8.45L189.33-8.45L189.50-7.50Q189.13-7.61 188.66-7.69L188.66-7.69Q188.26-7.76 187.70-7.83Q187.14-7.89 186.45-7.89L186.45-7.89L186.45-2.29Q186.45-1.79 186.47-1.42Q186.48-1.05 186.50-0.78Q186.52-0.51 186.55-0.33Q186.59-0.15 186.62-0.02L186.62-0.02L186.62 0L185.22 0L185.22-0.02Q185.26-0.15 185.29-0.33Q185.31-0.51 185.34-0.78Q185.36-1.05 185.37-1.42Q185.38-1.79 185.38-2.29L185.38-2.29Z" transform="translate(-0.59765625, 8.578125)"/></g></g></g></g></g><defs v-gra="od"/>
  </svg>
</svg>


